<svg xmlns="http://www.w3.org/2000/svg" width="16" height="18" viewBox="0 0 16 18" fill="none">
  <path d="M13.8062 15.3421L9.96539 11.0981M11.2457 7.56137C11.2457 8.21159 11.1298 8.85545 10.9046 9.45618C10.6794 10.0569 10.3493 10.6027 9.93322 11.0625C9.51712 11.5223 9.02314 11.887 8.47948 12.1358C7.93582 12.3847 7.35313 12.5127 6.76468 12.5127C6.17623 12.5127 5.59354 12.3847 5.04988 12.1358C4.50622 11.887 4.01224 11.5223 3.59614 11.0625C3.18004 10.6027 2.84998 10.0569 2.62479 9.45618C2.3996 8.85545 2.28369 8.21159 2.28369 7.56137C2.28369 6.24819 2.75579 4.98879 3.59614 4.06022C4.43649 3.13166 5.57625 2.61 6.76468 2.61C7.95311 2.61 9.09287 3.13166 9.93322 4.06022C10.7736 4.98879 11.2457 6.24819 11.2457 7.56137Z" stroke="white" stroke-width="1.06101" stroke-linecap="round" stroke-linejoin="round"/>
</svg>