<svg xmlns="http://www.w3.org/2000/svg" width="15" height="15" viewBox="0 0 15 15" fill="none">
  <path d="M9.65709 1.16136C9.4203 0.919038 9.13746 0.726488 8.82519 0.595026C8.51293 0.463564 8.17754 0.395844 7.83873 0.395844C7.49992 0.395844 7.16453 0.463564 6.85226 0.595026C6.54 0.726488 6.25716 0.919038 6.02037 1.16136L5.47319 1.72262L4.69025 1.71294C4.35134 1.70893 4.01505 1.77272 3.70116 1.90057C3.38726 2.02842 3.1021 2.21774 2.86244 2.4574C2.62278 2.69706 2.43346 2.98223 2.30561 3.29612C2.17776 3.61001 2.11396 3.9463 2.11798 4.28521L2.12677 5.06815L1.56728 5.61533C1.32495 5.85213 1.1324 6.13496 1.00094 6.44723C0.869478 6.75949 0.801758 7.09488 0.801758 7.43369C0.801758 7.7725 0.869478 8.10789 1.00094 8.42016C1.1324 8.73242 1.32495 9.01526 1.56728 9.25205L2.12765 9.79923L2.11798 10.5822C2.11396 10.9211 2.17776 11.2574 2.30561 11.5713C2.43346 11.8852 2.62278 12.1703 2.86244 12.41C3.1021 12.6496 3.38726 12.839 3.70116 12.9668C4.01505 13.0947 4.35134 13.1585 4.69025 13.1544L5.47319 13.1456L6.02037 13.7051C6.25716 13.9475 6.54 14.14 6.85226 14.2715C7.16453 14.4029 7.49992 14.4707 7.83873 14.4707C8.17754 14.4707 8.51293 14.4029 8.82519 14.2715C9.13746 14.14 9.4203 13.9475 9.65709 13.7051L10.2043 13.1448L10.9872 13.1544C11.3261 13.1585 11.6624 13.0947 11.9763 12.9668C12.2902 12.839 12.5754 12.6496 12.815 12.41C13.0547 12.1703 13.244 11.8852 13.3718 11.5713C13.4997 11.2574 13.5635 10.9211 13.5595 10.5822L13.5507 9.79923L14.1102 9.25205C14.3525 9.01526 14.5451 8.73242 14.6765 8.42016C14.808 8.10789 14.8757 7.7725 14.8757 7.43369C14.8757 7.09488 14.808 6.75949 14.6765 6.44723C14.5451 6.13496 14.3525 5.85213 14.1102 5.61533L13.5498 5.06815L13.5595 4.28521C13.5635 3.9463 13.4997 3.61001 13.3718 3.29612C13.244 2.98223 13.0547 2.69706 12.815 2.4574C12.5754 2.21774 12.2902 2.02842 11.9763 1.90057C11.6624 1.77272 11.3261 1.70893 10.9872 1.71294L10.2043 1.72174L9.65709 1.16136ZM9.90956 6.42555L7.27044 9.06468C7.22958 9.10564 7.18104 9.13814 7.1276 9.16031C7.07416 9.18249 7.01687 9.1939 6.95902 9.1939C6.90116 9.1939 6.84387 9.18249 6.79044 9.16031C6.737 9.13814 6.68846 9.10564 6.6476 9.06468L5.32804 7.74511C5.28714 7.70421 5.2547 7.65566 5.23257 7.60223C5.21043 7.5488 5.19904 7.49153 5.19904 7.43369C5.19904 7.37586 5.21043 7.31859 5.23257 7.26516C5.2547 7.21172 5.28714 7.16317 5.32804 7.12228C5.36893 7.08138 5.41748 7.04894 5.47092 7.02681C5.52435 7.00467 5.58162 6.99328 5.63945 6.99328C5.69729 6.99328 5.75456 7.00467 5.80799 7.02681C5.86142 7.04894 5.90997 7.08138 5.95087 7.12228L6.95902 8.1313L9.28673 5.80271C9.36932 5.72012 9.48134 5.67372 9.59815 5.67372C9.71495 5.67372 9.82697 5.72012 9.90956 5.80271C9.99216 5.8853 10.0386 5.99732 10.0386 6.11413C10.0386 6.23093 9.99216 6.34295 9.90956 6.42555Z" fill="#44A08D"/>
</svg>